# xmcd CD database file
#
# Track frame offsets:
#	150
#	27225
#	46951
#	68176
#	86551
#	112952
#	132420
#	164986
#
# Disc length: 4440 seconds
#
# Revision: 1
# Processed by: cddbd v1.5.1PL0 Copyright (c) Steve Scherf et al.
# Submitted via: CDex 1.51
#
DISCID=6d115608
DTITLE=DA PUMP - 胸焦がす．．．
DYEAR=2004
DGENRE=JPop
TTITLE0=胸焦がす．．．
TTITLE1=今夜君と
TTITLE2=当たり前の日々
TTITLE3=胸焦がす．．．〜Angel Version〜
TTITLE4=胸焦がす．．． (Back Track)
TTITLE5=今夜君と (Back Track)
TTITLE6=当たり前の日々 (BackTrack)
TTITLE7=DATA
EXTD=YEAR: 2004
EXTT0=
EXTT1=
EXTT2=
EXTT3=
EXTT4=
EXTT5=
EXTT6=
EXTT7=
PLAYORDER=
